<?xml version="1.0" encoding="utf-8"?>
<svg xmlns="http://www.w3.org/2000/svg" fill="none" height="157" viewBox="0 0 666 157" width="666">
<g clip-path="url(#clip0_4143_186)">
<path d="M102.143 1.93555H81.5103L61.0234 53.335C62.7542 53.6174 64.526 53.9544 66.3342 54.3598C69.8185 55.1432 73.2436 56.1042 76.6095 57.211C76.7462 57.2429 76.8782 57.2702 77.0149 57.3066L91.9952 17.9224L118.107 91.3027C103.71 80.3214 84.8489 68.9757 64.0978 64.3117C38.5735 58.5728 22.2131 67.7551 14.7343 73.7399C5.51115 81.123 0 91.2617 0 100.867C0 115.374 9.26875 127.535 22.04 129.781C28.3756 130.896 50.1241 131.52 64.2071 92.7693L64.6808 91.4712C62.5994 90.8108 60.4996 90.2187 58.3772 89.745C54.8519 88.9525 51.6773 88.6109 48.8351 88.5881C41.0512 109.18 31.0674 115.269 24.7911 114.163C19.617 113.252 15.8639 107.663 15.8639 100.872C15.8639 97.3148 18.164 91.3164 24.6453 86.1331C29.9014 81.9292 41.5613 75.5117 60.6181 79.7976C91.0888 86.6478 118.107 111.047 129.043 122.042L129.129 122.288H129.284H149.935C149.935 122.288 149.972 122.288 149.985 122.288L150.013 122.27C149.949 122.174 149.876 122.069 149.812 121.974L102.143 1.93555Z" fill="#20242D"/>
<path d="M643 113.338C643 106.975 647.814 102.161 654.177 102.161C660.54 102.161 665.181 106.975 665.181 113.338C665.181 119.701 660.367 124.515 654.177 124.515C647.987 124.515 643 119.528 643 113.338Z" fill="#E58C00"/>
<path d="M156.586 122.457V36.0979H172.649V52.5061C178.867 40.7613 189.575 33.8526 202.875 33.8526C230.509 33.8526 230.509 60.9692 230.509 75.132V122.457H214.447V75.6502C214.447 64.2508 214.447 48.5336 197.693 48.5336C182.839 48.5336 172.649 61.3146 172.649 80.4862V122.457H156.586Z" fill="#20242D"/>
<path d="M277.662 124.702C260.908 124.702 252.79 115.548 252.79 96.549V50.4334H236.9V36.0979H252.79V13.4719H268.853V36.0979H293.206V50.4334H268.853V96.3762C268.853 106.394 272.135 110.366 280.598 110.366C284.225 110.366 287.506 109.503 291.479 107.776V122.284C287.679 123.838 282.843 124.702 277.662 124.702Z" fill="#20242D"/>
<path d="M304.764 122.457V36.0979H320.826V122.457H304.764ZM312.881 22.4532C306.491 22.4532 301.655 17.4444 301.655 11.2266C301.655 4.83608 306.491 0 312.881 0C319.272 0 324.108 4.83608 324.108 11.2266C324.108 17.4444 319.272 22.4532 312.881 22.4532Z" fill="#20242D"/>
<path d="M377.195 124.702C351.633 124.702 334.534 106.394 334.534 79.2772C334.534 51.9879 351.46 33.8526 378.058 33.8526C404.657 33.8526 419.51 52.1606 414.329 77.2046H397.748C400.857 59.242 393.085 48.1881 377.713 48.1881C361.65 48.1881 351.46 60.6238 351.46 79.2772C351.46 97.9307 361.823 110.366 377.367 110.366C389.285 110.366 397.748 102.939 401.202 91.5402H418.647C415.02 108.639 401.375 124.702 377.195 124.702Z" fill="#20242D"/>
<path d="M430.994 122.457V36.0979H447.056V122.457H430.994ZM439.112 22.4532C432.721 22.4532 427.885 17.4444 427.885 11.2266C427.885 4.83608 432.721 0 439.112 0C445.502 0 450.338 4.83608 450.338 11.2266C450.338 17.4444 445.502 22.4532 439.112 22.4532Z" fill="#20242D"/>
<path d="M464.909 157V36.0979H480.971V49.9153C487.362 39.725 497.552 33.8526 510.679 33.8526C533.65 33.8526 549.886 52.1606 549.886 79.2772C549.886 106.567 533.478 124.702 510.679 124.702C497.552 124.702 487.362 118.657 480.971 108.466V157H464.909ZM506.706 110.366C522.424 110.366 532.959 97.758 532.959 79.2772C532.959 60.7965 522.424 48.1881 506.706 48.1881C490.989 48.1881 480.453 60.7965 480.453 79.2772C480.453 97.758 490.989 110.366 506.706 110.366Z" fill="#20242D"/>
<path d="M618.216 122.457V107.43C611.998 118.484 601.29 124.702 587.472 124.702C569.855 124.702 557.765 114.339 557.765 98.967C557.765 81.6953 572.791 70.8141 596.972 70.8141C603.535 70.8141 610.789 71.6777 617.525 73.2321V72.8867C617.525 56.3058 610.789 48.1881 596.799 48.1881C584.709 48.1881 577.8 55.2695 579.182 65.978H562.256C560.356 47.1518 574.691 33.8526 596.799 33.8526C620.461 33.8526 633.588 47.8427 633.588 73.0594V122.457H618.216ZM574.346 99.3124C574.346 106.739 580.218 111.057 589.89 111.057C604.571 111.057 615.453 101.04 617.871 86.3586C611.825 84.8042 605.262 83.9406 598.181 83.9406C583.5 83.9406 574.346 89.6403 574.346 99.3124Z" fill="#20242D"/>
</g>
<defs>
<clipPath id="clip0_4143_186">
<rect fill="white" height="157" width="666"/>
</clipPath>
</defs>
</svg>